<mxfile host="app.diagrams.net" agent="Mozilla/5.0 (Windows NT 10.0; Win64; x64) AppleWebKit/537.36 (KHTML, like Gecko) Chrome/130.0.0.0 Safari/537.36" version="24.8.3">
  <diagram name="Página-1" id="0m_pV6wtGaGGBMr5p1dx">
    <mxGraphModel dx="880" dy="434" grid="1" gridSize="10" guides="1" tooltips="1" connect="1" arrows="1" fold="1" page="1" pageScale="1" pageWidth="827" pageHeight="1169" math="0" shadow="0">
      <root>
        <mxCell id="0" />
        <mxCell id="1" parent="0" />
        <mxCell id="ldK9XROnoYoLe4nl5GCP-1" value="&lt;font style=&quot;&quot;&gt;&lt;span style=&quot;font-size: 21px;&quot;&gt;DIAGRAMA CASOS DE USO&lt;/span&gt;&lt;br&gt;&lt;font style=&quot;font-size: 18px;&quot;&gt;Gerenciador de Eventos de Networking&lt;/font&gt;&lt;/font&gt;" style="text;html=1;align=center;verticalAlign=middle;whiteSpace=wrap;rounded=0;" parent="1" vertex="1">
          <mxGeometry x="186" y="40" width="456" height="50" as="geometry" />
        </mxCell>
        <mxCell id="ldK9XROnoYoLe4nl5GCP-11" style="edgeStyle=orthogonalEdgeStyle;rounded=0;orthogonalLoop=1;jettySize=auto;html=1;exitX=0.5;exitY=0.5;exitDx=0;exitDy=0;exitPerimeter=0;entryX=0;entryY=0.5;entryDx=0;entryDy=0;" parent="1" source="ldK9XROnoYoLe4nl5GCP-3" target="ldK9XROnoYoLe4nl5GCP-7" edge="1">
          <mxGeometry relative="1" as="geometry" />
        </mxCell>
        <mxCell id="ldK9XROnoYoLe4nl5GCP-12" style="edgeStyle=orthogonalEdgeStyle;rounded=0;orthogonalLoop=1;jettySize=auto;html=1;exitX=0.5;exitY=0.5;exitDx=0;exitDy=0;exitPerimeter=0;entryX=0;entryY=0.5;entryDx=0;entryDy=0;" parent="1" source="ldK9XROnoYoLe4nl5GCP-3" target="ldK9XROnoYoLe4nl5GCP-8" edge="1">
          <mxGeometry relative="1" as="geometry" />
        </mxCell>
        <mxCell id="ldK9XROnoYoLe4nl5GCP-15" style="edgeStyle=orthogonalEdgeStyle;rounded=0;orthogonalLoop=1;jettySize=auto;html=1;exitX=0.5;exitY=0.5;exitDx=0;exitDy=0;exitPerimeter=0;entryX=0;entryY=0.5;entryDx=0;entryDy=0;" parent="1" source="ldK9XROnoYoLe4nl5GCP-3" target="ldK9XROnoYoLe4nl5GCP-9" edge="1">
          <mxGeometry relative="1" as="geometry">
            <Array as="points">
              <mxPoint x="180" y="240" />
              <mxPoint x="180" y="290" />
              <mxPoint x="400" y="290" />
              <mxPoint x="400" y="180" />
            </Array>
          </mxGeometry>
        </mxCell>
        <mxCell id="ldK9XROnoYoLe4nl5GCP-16" style="edgeStyle=orthogonalEdgeStyle;rounded=0;orthogonalLoop=1;jettySize=auto;html=1;exitX=0.5;exitY=0.5;exitDx=0;exitDy=0;exitPerimeter=0;entryX=0;entryY=0.5;entryDx=0;entryDy=0;" parent="1" source="ldK9XROnoYoLe4nl5GCP-3" target="ldK9XROnoYoLe4nl5GCP-10" edge="1">
          <mxGeometry relative="1" as="geometry">
            <Array as="points">
              <mxPoint x="180" y="240" />
              <mxPoint x="180" y="290" />
              <mxPoint x="400" y="290" />
              <mxPoint x="400" y="240" />
            </Array>
          </mxGeometry>
        </mxCell>
        <mxCell id="ldK9XROnoYoLe4nl5GCP-23" style="edgeStyle=orthogonalEdgeStyle;rounded=0;orthogonalLoop=1;jettySize=auto;html=1;exitX=0.5;exitY=0.5;exitDx=0;exitDy=0;exitPerimeter=0;entryX=0;entryY=0.5;entryDx=0;entryDy=0;" parent="1" source="ldK9XROnoYoLe4nl5GCP-3" target="ldK9XROnoYoLe4nl5GCP-21" edge="1">
          <mxGeometry relative="1" as="geometry">
            <Array as="points">
              <mxPoint x="180" y="240" />
              <mxPoint x="180" y="335" />
            </Array>
          </mxGeometry>
        </mxCell>
        <mxCell id="ldK9XROnoYoLe4nl5GCP-24" style="edgeStyle=orthogonalEdgeStyle;rounded=0;orthogonalLoop=1;jettySize=auto;html=1;exitX=0.5;exitY=0.5;exitDx=0;exitDy=0;exitPerimeter=0;entryX=0;entryY=0.5;entryDx=0;entryDy=0;" parent="1" source="ldK9XROnoYoLe4nl5GCP-3" target="ldK9XROnoYoLe4nl5GCP-22" edge="1">
          <mxGeometry relative="1" as="geometry">
            <Array as="points">
              <mxPoint x="180" y="240" />
              <mxPoint x="180" y="405" />
            </Array>
          </mxGeometry>
        </mxCell>
        <mxCell id="YVfrRZLJ3ESWkDZ0wNkV-1" style="edgeStyle=orthogonalEdgeStyle;rounded=0;orthogonalLoop=1;jettySize=auto;html=1;exitX=0.5;exitY=0.5;exitDx=0;exitDy=0;exitPerimeter=0;entryX=0;entryY=0.5;entryDx=0;entryDy=0;" edge="1" parent="1" source="ldK9XROnoYoLe4nl5GCP-3" target="ldK9XROnoYoLe4nl5GCP-26">
          <mxGeometry relative="1" as="geometry">
            <Array as="points">
              <mxPoint x="180" y="240" />
              <mxPoint x="180" y="469" />
            </Array>
          </mxGeometry>
        </mxCell>
        <mxCell id="YVfrRZLJ3ESWkDZ0wNkV-2" style="edgeStyle=orthogonalEdgeStyle;rounded=0;orthogonalLoop=1;jettySize=auto;html=1;exitX=0.5;exitY=0.5;exitDx=0;exitDy=0;exitPerimeter=0;entryX=0;entryY=0.5;entryDx=0;entryDy=0;" edge="1" parent="1" source="ldK9XROnoYoLe4nl5GCP-3" target="ldK9XROnoYoLe4nl5GCP-30">
          <mxGeometry relative="1" as="geometry">
            <mxPoint x="320" y="540" as="targetPoint" />
            <Array as="points">
              <mxPoint x="180" y="240" />
              <mxPoint x="180" y="539" />
            </Array>
          </mxGeometry>
        </mxCell>
        <mxCell id="ldK9XROnoYoLe4nl5GCP-3" value="Usuário Ativo" style="shape=umlActor;verticalLabelPosition=bottom;verticalAlign=top;html=1;outlineConnect=0;" parent="1" vertex="1">
          <mxGeometry x="80" y="200" width="40" height="80" as="geometry" />
        </mxCell>
        <mxCell id="ldK9XROnoYoLe4nl5GCP-7" value="&lt;font style=&quot;font-size: 14px;&quot;&gt;Autenticar&lt;/font&gt;" style="ellipse;whiteSpace=wrap;html=1;" parent="1" vertex="1">
          <mxGeometry x="240" y="160" width="120" height="40" as="geometry" />
        </mxCell>
        <mxCell id="ldK9XROnoYoLe4nl5GCP-8" value="&lt;font style=&quot;font-size: 14px;&quot;&gt;Registrar&lt;/font&gt;" style="ellipse;whiteSpace=wrap;html=1;" parent="1" vertex="1">
          <mxGeometry x="240" y="220" width="120" height="40" as="geometry" />
        </mxCell>
        <mxCell id="ldK9XROnoYoLe4nl5GCP-9" value="&lt;font style=&quot;font-size: 14px;&quot;&gt;Adicionar Contato&lt;/font&gt;" style="ellipse;whiteSpace=wrap;html=1;" parent="1" vertex="1">
          <mxGeometry x="440" y="160" width="140" height="40" as="geometry" />
        </mxCell>
        <mxCell id="ldK9XROnoYoLe4nl5GCP-10" value="&lt;font style=&quot;font-size: 14px;&quot;&gt;Visualizar Contatos&lt;/font&gt;" style="ellipse;whiteSpace=wrap;html=1;" parent="1" vertex="1">
          <mxGeometry x="440" y="220" width="140" height="40" as="geometry" />
        </mxCell>
        <mxCell id="ldK9XROnoYoLe4nl5GCP-21" value="&lt;font style=&quot;font-size: 14px;&quot;&gt;Agendar Evento de Networking&lt;/font&gt;" style="ellipse;whiteSpace=wrap;html=1;" parent="1" vertex="1">
          <mxGeometry x="440" y="310" width="160" height="50" as="geometry" />
        </mxCell>
        <mxCell id="ldK9XROnoYoLe4nl5GCP-22" value="&lt;font style=&quot;font-size: 14px;&quot;&gt;Gerenciar Evento de Networking&lt;/font&gt;" style="ellipse;whiteSpace=wrap;html=1;" parent="1" vertex="1">
          <mxGeometry x="440" y="380" width="160" height="50" as="geometry" />
        </mxCell>
        <mxCell id="ldK9XROnoYoLe4nl5GCP-26" value="&lt;span style=&quot;font-size: 14px;&quot;&gt;Entrar em evento&lt;/span&gt;" style="ellipse;whiteSpace=wrap;html=1;" parent="1" vertex="1">
          <mxGeometry x="330" y="440" width="130" height="57.5" as="geometry" />
        </mxCell>
        <mxCell id="ldK9XROnoYoLe4nl5GCP-30" value="&lt;span style=&quot;font-size: 14px;&quot;&gt;Sair de evento&lt;/span&gt;" style="ellipse;whiteSpace=wrap;html=1;" parent="1" vertex="1">
          <mxGeometry x="330" y="510" width="130" height="57.5" as="geometry" />
        </mxCell>
      </root>
    </mxGraphModel>
  </diagram>
</mxfile>
